<svg width="34" height="34" viewBox="0 0 34 34" fill="none" xmlns="http://www.w3.org/2000/svg">
<path d="M31.1663 29.75V26.9167C31.1663 24.2762 29.3604 22.0576 26.9163 21.4285M21.958 4.66191C24.0347 5.50254 25.4997 7.53852 25.4997 9.91667C25.4997 12.2948 24.0347 14.3308 21.958 15.1714M24.083 29.75C24.083 27.1097 24.083 25.7895 23.6517 24.7481C23.0765 23.3596 21.9734 22.2565 20.5849 21.6813C19.5435 21.25 18.2233 21.25 15.583 21.25H11.333C8.69267 21.25 7.3725 21.25 6.33113 21.6813C4.94264 22.2565 3.83949 23.3596 3.26436 24.7481C2.83301 25.7895 2.83301 27.1097 2.83301 29.75M19.1247 9.91667C19.1247 13.0463 16.5876 15.5833 13.458 15.5833C10.3284 15.5833 7.79134 13.0463 7.79134 9.91667C7.79134 6.78705 10.3284 4.25 13.458 4.25C16.5876 4.25 19.1247 6.78705 19.1247 9.91667Z" stroke="#222222" stroke-width="2" stroke-linecap="round" stroke-linejoin="round"/>
</svg>
