<svg width="34" height="34" viewBox="0 0 34 34" fill="none" xmlns="http://www.w3.org/2000/svg">
<path d="M12.6798 29.2501C8.74509 28.3271 5.67286 25.2549 4.74991 21.3202C4.08336 18.4786 4.08336 15.5214 4.74991 12.6798C5.67286 8.74509 8.7451 5.67286 12.6798 4.74991C15.5214 4.08336 18.4786 4.08336 21.3202 4.74991C25.2549 5.67286 28.3271 8.74509 29.2501 12.6798C29.9166 15.5214 29.9166 18.4786 29.2501 21.3202C28.3271 25.2549 25.2549 28.3271 21.3202 29.2501C18.4786 29.9166 15.5214 29.9166 12.6798 29.2501Z" stroke="#222222" stroke-width="2"/>
<circle cx="16.9997" cy="21.9587" r="1.41667" fill="#222222"/>
<path d="M14.167 14.1667V13.4583C14.167 11.8935 15.4355 10.625 17.0003 10.625V10.625V10.625C18.5651 10.625 19.8337 11.8935 19.8337 13.4583V13.6302C19.8337 14.4272 19.517 15.1916 18.9535 15.7552L17.0003 17.7083" stroke="#222222" stroke-width="2" stroke-linecap="round" stroke-linejoin="round"/>
</svg>
