<svg width="34" height="34" viewBox="0 0 34 34" fill="none" xmlns="http://www.w3.org/2000/svg">
<path d="M30.6849 14.7902L29.2966 20.7119C28.1066 25.826 25.7549 27.8944 21.3349 27.4694C20.6266 27.4127 19.8616 27.2852 19.0399 27.0869L16.6599 26.5202C10.7524 25.1177 8.92493 22.1994 10.3133 16.2777L11.7016 10.3419C11.9849 9.13772 12.3249 8.08938 12.7499 7.22522C14.4074 3.79688 17.2266 2.87605 21.9583 3.99522L24.3241 4.54772C30.2599 5.93605 32.0733 8.86855 30.6849 14.7902Z" stroke="#222222" stroke-width="1.5" stroke-linecap="round" stroke-linejoin="round"/>
<path d="M21.335 27.4688C20.4567 28.0638 19.3517 28.5596 18.0058 28.9988L15.7675 29.7354C10.1433 31.5488 7.18249 30.0329 5.35499 24.4088L3.54166 18.8129C1.72833 13.1888 3.22999 10.2138 8.85416 8.40044L11.0925 7.66378C11.6733 7.47961 12.2258 7.32378 12.75 7.22461C12.325 8.08878 11.985 9.13711 11.7017 10.3413L10.3133 16.2771C8.92499 22.1988 10.7525 25.1171 16.66 26.5196L19.04 27.0863C19.8617 27.2846 20.6267 27.4121 21.335 27.4688Z" stroke="#222222" stroke-width="1.5" stroke-linecap="round" stroke-linejoin="round"/>
<path d="M17.9062 12.084L24.7771 13.8265" stroke="#222222" stroke-width="1.5" stroke-linecap="round" stroke-linejoin="round"/>
<path d="M16.5186 17.5664L20.6269 18.6147" stroke="#222222" stroke-width="1.5" stroke-linecap="round" stroke-linejoin="round"/>
</svg>
