<svg width="28" height="32" viewBox="0 0 28 32" fill="none" xmlns="http://www.w3.org/2000/svg">
<path d="M26.6668 30.25C26.6668 28.0404 26.6668 26.9355 26.3941 26.0365C25.7801 24.0124 24.1961 22.4284 22.172 21.8144C21.273 21.5417 20.1681 21.5417 17.9585 21.5417H10.0418C7.83219 21.5417 6.72737 21.5417 5.82835 21.8144C3.80422 22.4284 2.22023 24.0124 1.60621 26.0365C1.3335 26.9355 1.3335 28.0404 1.3335 30.25M21.1252 8.875C21.1252 12.81 17.9352 16 14.0002 16C10.0651 16 6.87516 12.81 6.87516 8.875C6.87516 4.93997 10.0651 1.75 14.0002 1.75C17.9352 1.75 21.1252 4.93997 21.1252 8.875Z" stroke="black" stroke-width="2" stroke-linecap="round" stroke-linejoin="round"/>
</svg>
